<?xml version="1.0" encoding="iso-8859-1"?>
<!-- Generator: Adobe Illustrator 18.1.1, SVG Export Plug-In . SVG Version: 6.00 Build 0)  -->
<svg version="1.1" id="Capa_1" xmlns="http://www.w3.org/2000/svg" xmlns:xlink="http://www.w3.org/1999/xlink" x="0px" y="0px"
	 viewBox="0 0 611.999 611.999" style="enable-background:new 0 0 611.999 611.999;" xml:space="preserve">
<g>
	<g>
		<path d="M554.375,459.156c-19.859-14.004-43.3-24.475-68.796-30.972c3.034-2.785,5.943-5.748,8.684-8.909l89.377-41.838
			c6.973-3.262,10.781-10.897,9.197-18.429c-0.373-1.773-9.414-43.913-33.929-87.477c-33.703-59.886-80.461-93.33-135.222-96.717
			c-0.055-0.004-0.109,0-0.164-0.003c-0.274-0.014-0.551-0.01-0.83-0.01c-0.303-0.001-0.607-0.006-0.905,0.01
			c-0.048,0.003-0.097,0-0.148,0.003c-54.761,3.387-101.521,36.831-135.223,96.717c-4.795,8.52-8.989,16.98-12.651,25.1
			c-6.997-2.531-14.191-4.736-21.546-6.611c21.538-19.749,36.04-49.371,38.399-82.94c0.383-0.535,0.754-1.085,1.079-1.677
			l26.385-47.959c1.559-2.834,2.255-6.064,2.002-9.289c-0.091-1.154-2.415-28.579-19.628-55.857
			c-16.061-25.451-48.241-55.717-110.411-55.717c-0.234,0-0.47,0.001-0.703,0.001c-0.236,0-0.466-0.001-0.703-0.001
			c-62.163,0-94.351,30.268-110.412,55.717C61.011,119.574,58.687,147,58.597,148.153c-0.254,3.225,0.442,6.455,2.002,9.289
			l26.385,47.959c0.325,0.591,0.695,1.14,1.078,1.675c2.357,33.549,16.843,63.156,38.36,82.908
			c-25.497,6.495-48.937,16.967-68.796,30.97C20.464,347.153,0,382.555,0,420.637c0,9.158,7.423,16.58,16.58,16.58h315.262
			c-14.775,5.874-28.529,13.219-40.896,21.939c-37.161,26.201-57.627,61.602-57.627,99.683c0,9.157,7.424,16.58,16.58,16.58h345.517
			c9.158,0,16.58-7.424,16.58-16.58C612,520.756,591.534,485.356,554.375,459.156z M268.449,542.257
			c4.987-20.839,19.33-40.293,41.607-56.001c29.857-21.053,69.849-32.648,112.605-32.648c42.754,0,82.745,11.595,112.603,32.648
			c22.277,15.707,36.618,35.162,41.604,56.001H268.449z M76.734,348.054c29.86-21.053,69.851-32.648,112.606-32.648
			c25.334,0,50.001,4.148,72.226,12.065c-6.2,18.084-8.883,30.585-9.082,31.533c-1.583,7.532,2.225,15.167,9.195,18.429
			l56.868,26.621H35.13C40.116,383.219,54.459,363.76,76.734,348.054z M422.659,207.991
			c86.427,6.138,123.857,108.935,134.419,145.263l-37.378,17.497c2.99-11.105,4.604-22.907,4.604-35.141
			c0-9.158-7.424-16.58-16.58-16.58c-9.157,0-16.58,7.422-16.58,16.58c0,22.975-7.423,43.835-19.438,59.126
			c-0.362,0.41-0.702,0.839-1.018,1.279c-12.37,15.096-29.334,24.433-48.027,24.433c-18.697,0-35.662-9.339-48.032-24.435
			c-0.314-0.437-0.649-0.858-1.006-1.263c-12.022-15.293-19.449-36.156-19.449-59.14c0-9.158-7.422-16.58-16.58-16.58
			c-9.157,0-16.58,7.423-16.58,16.58c0,12.234,1.614,24.036,4.604,35.141l-37.397-17.506
			C298.714,316.915,335.971,214.144,422.659,207.991z M120.87,199.325c-0.011-0.637-28.557-53.033-28.557-53.033
			c1.315-7.347,5.009-22.538,14.596-37.301c16.918-26.049,44.411-39.251,81.726-39.251c0.21,0,0.424,0.001,0.636,0.001
			c0.011,0,0.022-0.001,0.033-0.001s0.022,0.001,0.032,0.001c0.022,0,0.046,0,0.068,0c37.657-0.17,65.349,13.054,82.362,39.25
			c9.599,14.779,13.288,29.986,14.598,37.296c0,0-28.547,52.476-28.556,53.037c-0.725,46.005-31.164,82.922-68.472,82.922
			C152.094,282.245,121.696,245.222,120.87,199.325z"/>
	</g>
</g>
<g>
</g>
<g>
</g>
<g>
</g>
<g>
</g>
<g>
</g>
<g>
</g>
<g>
</g>
<g>
</g>
<g>
</g>
<g>
</g>
<g>
</g>
<g>
</g>
<g>
</g>
<g>
</g>
<g>
</g>
</svg>
