<?xml version="1.0" encoding="iso-8859-1"?>
<!-- Generator: Adobe Illustrator 18.1.1, SVG Export Plug-In . SVG Version: 6.00 Build 0)  -->
<svg version="1.1" id="Capa_1" xmlns="http://www.w3.org/2000/svg" xmlns:xlink="http://www.w3.org/1999/xlink" x="0px" y="0px"
	 viewBox="0 0 612.001 612.001" style="enable-background:new 0 0 612.001 612.001;" xml:space="preserve">
<g>
	<g>
		<g>
			<path d="M567.668,57.498c-28.59-28.588-66.599-44.333-107.029-44.333c-40.433,0-78.444,15.744-107.029,44.333
				c-28.59,28.59-44.336,66.599-44.336,107.032c0,40.43,15.746,78.441,44.336,107.029c28.587,28.59,66.596,44.336,107.029,44.336
				c40.43,0,78.441-15.746,107.029-44.336s44.333-66.599,44.333-107.029C612,124.096,596.256,86.087,567.668,57.498z
				 M543.634,247.526c-22.169,22.172-51.644,34.381-82.995,34.381c-31.353,0-60.829-12.209-82.995-34.381
				c-22.172-22.169-34.381-51.644-34.381-82.995s12.209-60.829,34.381-82.999c22.166-22.167,51.644-34.376,82.995-34.376
				c31.353,0,60.826,12.209,82.995,34.378s34.378,51.644,34.378,82.998C578.012,195.882,565.803,225.356,543.634,247.526z"/>
			<path d="M508.323,146.873h-99.348c-9.385,0-16.994,7.609-16.994,16.994c0,9.388,7.609,16.994,16.994,16.994h99.348
				c9.385,0,16.994-7.606,16.994-16.994C525.317,154.482,517.708,146.873,508.323,146.873z"/>
			<path d="M361.365,470.236c-23.198-16.358-50.753-28.428-80.738-35.671c27.811-24.089,45.859-62.625,45.859-105.973
				c0-72.811-50.916-132.047-113.501-132.047c-62.582,0-113.498,59.236-113.498,132.047c0,43.348,18.048,81.883,45.86,105.973
				c-29.986,7.241-57.541,19.312-80.741,35.671C22.944,499.611,0,539.247,0,581.843c0,9.385,7.609,16.994,16.994,16.994h391.981
				c9.388,0,16.994-7.609,16.994-16.994C425.969,539.247,403.026,499.611,361.365,470.236z M133.475,328.594
				c0-54.07,35.669-98.059,79.51-98.059c43.843,0,79.513,43.991,79.513,98.059c0,54.073-35.668,98.062-79.511,98.062
				C169.144,426.656,133.475,382.666,133.475,328.594z M326.486,564.849v-30.352c0-9.385-7.609-16.994-16.994-16.994
				c-9.384,0-16.993,7.609-16.993,16.994v30.352H133.475v-30.352c0-9.385-7.609-16.994-16.994-16.994s-16.994,7.609-16.994,16.994
				v30.352H35.766c5.248-24.922,21.986-48.191,48.426-66.834c34.178-24.101,79.919-37.372,128.796-37.372
				c48.875,0,94.615,13.271,128.791,37.372c26.44,18.643,43.179,41.913,48.426,66.834H326.486z"/>
		</g>
	</g>
</g>
<g>
</g>
<g>
</g>
<g>
</g>
<g>
</g>
<g>
</g>
<g>
</g>
<g>
</g>
<g>
</g>
<g>
</g>
<g>
</g>
<g>
</g>
<g>
</g>
<g>
</g>
<g>
</g>
<g>
</g>
</svg>
